<svg width="32" height="32" viewBox="0 0 32 32" xmlns="http://www.w3.org/2000/svg">
  <!-- Merchant NPC -->
  
  <!-- Body -->
  <rect x="10" y="16" width="12" height="14" fill="#8bc34a" stroke="#689f38" stroke-width="1"/>
  
  <!-- Head -->
  <circle cx="16" cy="10" r="6" fill="#fdbcb4" stroke="#e8a598" stroke-width="1"/>
  
  <!-- Hat -->
  <ellipse cx="16" cy="6" rx="8" ry="3" fill="#795548" stroke="#5d4037" stroke-width="1"/>
  <rect x="8" y="6" width="16" height="2" fill="#795548"/>
  
  <!-- Eyes -->
  <circle cx="13" cy="9" r="1" fill="#000"/>
  <circle cx="19" cy="9" r="1" fill="#000"/>
  
  <!-- Mustache -->
  <path d="M12 11 Q16 13 20 11" stroke="#8b4513" stroke-width="2" fill="none"/>
  
  <!-- Arms -->
  <rect x="6" y="18" width="4" height="8" fill="#fdbcb4"/>
  <rect x="22" y="18" width="4" height="8" fill="#fdbcb4"/>
  
  <!-- Bag -->
  <ellipse cx="8" cy="22" rx="3" ry="4" fill="#795548" stroke="#5d4037" stroke-width="1"/>
  
  <!-- Coins -->
  <circle cx="6" cy="20" r="1" fill="#ffd700"/>
  <circle cx="10" cy="24" r="1" fill="#ffd700"/>
  
  <!-- Vest details -->
  <rect x="11" y="17" width="10" height="1" fill="#aed581"/>
  <rect x="11" y="20" width="10" height="1" fill="#aed581"/>
  <rect x="11" y="23" width="10" height="1" fill="#aed581"/>
  
  <!-- Buttons -->
  <circle cx="16" cy="19" r="0.5" fill="#795548"/>
  <circle cx="16" cy="22" r="0.5" fill="#795548"/>
  <circle cx="16" cy="25" r="0.5" fill="#795548"/>
</svg>